#N canvas 827 239 527 327 12;
#X text 23 127 sawtooth;
#X msg 440 214 0;
#X obj 153 312 *~;
#X obj 211 312 *~;
#X msg 482 214 1;
#X msg 502 214 0;
#X obj 211 362 dac~ 1;
#X obj 213 31 r pitch @hv_param;
#X obj 213 66 sig~;
#X obj 94 127 hv.osc~ saw;
#X obj 232 127 hv.osc~ square;
#X text 349 126 square;
#X obj 470 105 r waveform @hv_param 0 1 0;
#X obj 470 154 select 0 1;
#X msg 419 214 1;
#X connect 1 0 3 1;
#X connect 2 0 6 0;
#X connect 3 0 6 0;
#X connect 4 0 3 1;
#X connect 5 0 2 1;
#X connect 7 0 8 0;
#X connect 8 0 9 0;
#X connect 8 0 10 0;
#X connect 9 0 2 0;
#X connect 10 0 3 0;
#X connect 12 0 13 0;
#X connect 13 0 1 0;
#X connect 13 0 14 0;
#X connect 13 1 4 0;
#X connect 13 1 5 0;
#X connect 14 0 2 1;
