#N canvas 827 239 527 327 12;
#X text 23 126 sawtooth;
#X obj 153 312 *~;
#X obj 211 312 *~;
#X obj 211 362 dac~ 1;
#X obj 213 31 r pitch @hv_param;
#X obj 213 66 sig~;
#X obj 94 127 hv.osc~ saw;
#X obj 232 127 hv.osc~ square;
#X text 349 125 square;
#X obj 470 105 r waveform @hv_param 0 1 0;
#X obj 440 154 == 0;
#X obj 502 154 == 1;
#X msg 440 189 \$1 10;
#X obj 440 223 line~;
#X msg 502 189 \$1 10;
#X obj 502 223 line~;
#X connect 1 0 3 0;
#X connect 2 0 3 0;
#X connect 4 0 5 0;
#X connect 5 0 6 0;
#X connect 5 0 7 0;
#X connect 6 0 1 0;
#X connect 7 0 2 0;
#X connect 9 0 10 0;
#X connect 9 0 11 0;
#X connect 10 0 12 0;
#X connect 11 0 14 0;
#X connect 12 0 13 0;
#X connect 13 0 1 1;
#X connect 14 0 15 0;
#X connect 15 0 2 1;
