#N canvas 827 239 527 327 12;
#X obj 94 127 *~ 2;
#X obj 94 219 -~ 1;
#X obj 343 153 abs~;
#X obj 343 127 -~ 0.5;
#X obj 343 184 -~ 0.25;
#X obj 343 219 *~ 4;
#X obj 213 66 phasor~ 440;
#X obj 232 127 +~ 0.5;
#X obj 232 153 wrap~;
#X obj 213 219 +~;
#X text 23 127 sawtooth;
#X text 171 126 pulse;
#X text 395 126 triangle;
#X obj 232 184 *~ -2;
#X msg 419 214 1;
#X msg 440 214 0;
#X obj 153 312 *~;
#X obj 211 312 *~;
#X obj 272 312 *~;
#X msg 482 214 1;
#X msg 502 214 0;
#X msg 545 214 1;
#X msg 566 214 0;
#X obj 470 154 select 0 1 2;
#X obj 211 362 dac~ 1;
#X obj 213 31 r pitch @hv_param;
#X obj 470 105 r waveform @hv_param 0 2 0;
#X connect 0 0 1 0;
#X connect 0 0 9 0;
#X connect 1 0 16 0;
#X connect 2 0 4 0;
#X connect 3 0 2 0;
#X connect 4 0 5 0;
#X connect 5 0 18 0;
#X connect 6 0 7 0;
#X connect 6 0 0 0;
#X connect 6 0 3 0;
#X connect 7 0 8 0;
#X connect 8 0 13 0;
#X connect 9 0 17 0;
#X connect 13 0 9 1;
#X connect 14 0 16 1;
#X connect 15 0 17 1;
#X connect 15 0 18 1;
#X connect 16 0 24 0;
#X connect 17 0 24 0;
#X connect 18 0 24 0;
#X connect 19 0 17 1;
#X connect 20 0 18 1;
#X connect 20 0 16 1;
#X connect 21 0 18 1;
#X connect 22 0 17 1;
#X connect 22 0 16 1;
#X connect 23 0 14 0;
#X connect 23 0 15 0;
#X connect 23 1 19 0;
#X connect 23 1 20 0;
#X connect 23 2 21 0;
#X connect 23 2 22 0;
#X connect 25 0 6 0;
#X connect 26 0 23 0;
