#N canvas 827 239 527 327 12;
#X obj 215 234 line~;
#X obj 215 404 exp~;
#X obj 115 234 line~;
#X obj 115 261 exp~;
#X obj 64 333 +~;
#X obj 14 234 line~;
#X obj 134 459 *~;
#X obj 64 404 cos~;
#X obj 64 368 -~ 0.25;
#X obj 115 178 f;
#X obj 215 177 f;
#X obj 14 178 f;
#X obj 16 24 r noteon_trig @hv_param;
#X obj 257 59 r shape_f @hv_param -100 -10 -50;
#X obj 134 550 dac~ 1;
#X msg 14 206 0 \, \$1 2000;
#X msg 115 206 0 \, \$1 2000;
#X msg 215 206 0 \, \$1 2000;
#X obj 226 129 r decay_f @hv_param -100 -20 -40;
#X obj 134 494 *~;
#X obj 134 520 clip~ -1 1;
#X obj 278 368 r dist_f @hv_param 1 30 1;
#X obj 186 24 r pitch @hv_param;
#X obj 186 59 * 0.25;
#X obj 315 177 r attack_f @hv_param -10 -1 -5;
#X msg 278 395 \$1 10;
#X obj 278 421 line~;
#X msg 315 206 \$1 10;
#X obj 315 234 line~;
#X obj 115 296 *~;
#X connect 0 0 1 0;
#X connect 1 0 6 1;
#X connect 2 0 3 0;
#X connect 3 0 29 0;
#X connect 4 0 8 0;
#X connect 5 0 4 0;
#X connect 6 0 19 0;
#X connect 7 0 6 0;
#X connect 8 0 7 0;
#X connect 9 0 16 0;
#X connect 10 0 17 0;
#X connect 11 0 15 0;
#X connect 12 0 11 0;
#X connect 12 0 9 0;
#X connect 12 0 10 0;
#X connect 13 0 9 1;
#X connect 15 0 5 0;
#X connect 16 0 2 0;
#X connect 17 0 0 0;
#X connect 18 0 10 1;
#X connect 19 0 20 0;
#X connect 20 0 14 0;
#X connect 21 0 25 0;
#X connect 22 0 23 0;
#X connect 23 0 11 1;
#X connect 24 0 27 0;
#X connect 25 0 26 0;
#X connect 26 0 19 1;
#X connect 27 0 28 0;
#X connect 28 0 29 1;
#X connect 29 0 4 1;
