#N canvas 255 137 727 540 12;
#X obj 28 198 dac~ 1;
#X obj 28 159 tabread~ noise_r;
#X text 224 20 \; 64 for NTS-1 \, \; 16 for prologue and minilogue xd;
#X text 127 77 \; sampling rate / buffer size = 48000/16 = 3000;
#X text 71 118 \; * buffer size;
#X text 197 126 Note: Since NTS-1's block size is 64 \, this patch uses the same content four times. Increasing the table size to 64 might improve randomness of the noise \, but it may take too long processing time on prologue and minilogue xd., f 38;
#X obj 31 29 table noise_r 64 @hv_table;
#X obj 28 77 phasor~ 750;
#X obj 28 119 *~ 64;
#X connect 1 0 0 0;
#X connect 7 0 8 0;
#X connect 8 0 1 0;
