#N canvas 255 137 727 540 12;
#X obj 28 198 dac~ 1;
#X obj 28 77 phasor~ 750;
#X obj 28 119 *~ 64;
#X obj 31 29 table noise_r 64 @hv_table;
#X obj 28 159 tabread~ noise_r;
#X text 224 20 \; 64 for NTS-1 \, \; 16 for prologue and minilogue xd;
#X text 127 77 \; sampling rate / buffer size = 48000/64 = 750;
#X text 71 118 \; 64 = buffer size;
#X text 189 155 Note: This patch is for NTS-1 only. To use with prologue and minilogue xd \, change the size of the table to 16 and the frequency of [phasor~] to 3000;
#X connect 1 0 2 0;
#X connect 2 0 4 0;
#X connect 4 0 0 0;
