#N canvas 217 198 702 438 12;
#X obj 89 94 +~;
#X obj 19 284 *~ 0.95;
#X obj 261 64 r pitch @hv_param;
#X obj 277 144 /, f 5;
#X obj 261 90 t b f, f 10;
#X obj 261 116 f 1000;
#X obj 110 327 dac~ 1;
#X obj 222 11 table noise_r 64 @hv_table;
#X obj 100 11 phasor~ 750;
#X obj 100 64 tabread~ noise_r;
#X obj 100 37 *~ 64;
#X obj 89 136 delwrite~ buf 30;
#X obj 89 192 delread~ buf 1;
#X obj 222 235 r shape_f @hv_param 0.9 1 0.95;
#X text 172 290 Note: this patch is only for NTS-1;
#X connect 0 0 11 0;
#X connect 1 0 6 0;
#X connect 1 0 0 0;
#X connect 2 0 4 0;
#X connect 3 0 12 0;
#X connect 4 0 5 0;
#X connect 4 1 3 1;
#X connect 5 0 3 0;
#X connect 8 0 10 0;
#X connect 9 0 0 1;
#X connect 10 0 9 0;
#X connect 12 0 1 0;
#X connect 13 0 1 1;
