#N canvas 599 239 702 438 12;
#X obj 89 94 +~;
#X obj 19 327 *~ 0.95;
#X obj 261 107 r pitch @hv_param;
#X obj 277 187 /, f 5;
#X obj 261 133 t b f, f 10;
#X obj 261 159 f 1000;
#X obj 100 64 tabread~ noise_r;
#X obj 89 136 delwrite~ buf 30;
#X obj 89 235 delread~ buf 1;
#X obj 222 278 r shape_f @hv_param 0.9 1 0.95;
#X obj 222 49 r noteon_trig @hv_param;
#X msg 222 75 clear;
#X obj 222 11 table noise_r 64 @hv_table;
#X obj 100 37 *~ 64;
#X obj 100 11 phasor~ 750;
#X obj 110 370 *~ 0.5;
#X obj 110 396 dac~ 1;
#X connect 0 0 7 0;
#X connect 1 0 0 0;
#X connect 1 0 15 0;
#X connect 2 0 4 0;
#X connect 3 0 8 0;
#X connect 4 0 5 0;
#X connect 4 1 3 1;
#X connect 5 0 3 0;
#X connect 6 0 0 1;
#X connect 8 0 1 0;
#X connect 9 0 1 1;
#X connect 10 0 11 0;
#X connect 11 0 7 0;
#X connect 13 0 6 0;
#X connect 14 0 13 0;
#X connect 15 0 16 0;
