#N canvas 149 107 663 434 12;
#X obj 74 140 osc~;
#X obj 142 93 * 2;
#X obj 142 140 osc~;
#X obj 207 140 osc~;
#X obj 207 93 * 4;
#X obj 274 140 osc~;
#X obj 274 93 * 8;
#X msg 334 198 0.7;
#X obj 356 235 * 0.5;
#X obj 381 274 * 0.5;
#X obj 418 312 * 0.5;
#X obj 72 322 *~;
#X obj 142 322 *~;
#X obj 207 322 *~;
#X obj 274 322 *~;
#X obj 72 383 dac~ 1;
#X obj 74 9 r pitch @hv_param;
#X obj 11 140 osc~;
#X obj 11 93 * 0.5;
#X obj 9 322 *~;
#X obj 395 123 r slfo @hv_param;
#X obj 395 174 +;
#X obj 294 9 r harm1 @hv_param 1 8 2;
#X obj 327 33 r harm2 @hv_param 1 8 4;
#X obj 381 56 r harm3 @hv_param 1 8 8;
#X obj 381 93 r alt_f @hv_param 0 0.5 0;
#X obj 434 146 r shape_f @hv_param 0.1 1 0.5;
#X connect 0 0 11 0;
#X connect 1 0 2 0;
#X connect 2 0 12 0;
#X connect 3 0 13 0;
#X connect 4 0 3 0;
#X connect 5 0 14 0;
#X connect 6 0 5 0;
#X connect 7 0 8 1;
#X connect 7 0 11 1;
#X connect 8 0 9 1;
#X connect 8 0 12 1;
#X connect 9 0 10 1;
#X connect 9 0 13 1;
#X connect 10 0 14 1;
#X connect 11 0 15 0;
#X connect 12 0 15 0;
#X connect 13 0 15 0;
#X connect 14 0 15 0;
#X connect 16 0 0 0;
#X connect 16 0 1 0;
#X connect 16 0 4 0;
#X connect 16 0 6 0;
#X connect 16 0 18 0;
#X connect 17 0 19 0;
#X connect 18 0 17 0;
#X connect 19 0 15 0;
#X connect 20 0 21 0;
#X connect 21 0 7 0;
#X connect 21 0 8 0;
#X connect 21 0 9 0;
#X connect 21 0 10 0;
#X connect 22 0 1 1;
#X connect 23 0 4 1;
#X connect 24 0 6 1;
#X connect 25 0 19 1;
#X connect 26 0 21 1;
