#N canvas 774 239 527 588 12;
#X obj 117 439 wrap~;
#X obj 117 371 +~ 1;
#X obj 117 403 /~ 4;
#X obj 117 536 *~ 4;
#X obj 117 570 -~ 1;
#X obj 117 467 -~ 0.5;
#X obj 117 500 abs~;
#X obj 77 272 *~;
#X obj 117 324 +~;
#X obj 32 173 osc~;
#X obj 117 612 dac~ 1;
#X obj 32 119 r pitch @hv_param;
#X obj 302 169 r alt_f @hv_param -1 1 0;
#X obj 214 44 r scale_f @hv_param 1 10 5;
#X obj 159 17 r shape_f @hv_param 0 1 0;
#X obj 241 139 r slfo @hv_param;
#X text 162 317 derived from MKMR library by Miguel Moreno https://github.com/MikeMorenoDSP/pd-mkmr/;
#X msg 302 198 \$1 10;
#X obj 302 224 line~;
#X msg 241 169 \$1 10;
#X obj 241 195 line~;
#X msg 214 74 \$1 10;
#X obj 214 100 line~;
#X msg 159 44 \$1 10;
#X obj 159 70 line~;
#X obj 167 272 +~;
#X obj 153 185 *~;
#X obj 117 220 +~ 1;
#X connect 0 0 5 0;
#X connect 1 0 2 0;
#X connect 2 0 0 0;
#X connect 3 0 4 0;
#X connect 4 0 10 0;
#X connect 5 0 6 0;
#X connect 6 0 3 0;
#X connect 7 0 8 0;
#X connect 8 0 1 0;
#X connect 9 0 7 0;
#X connect 11 0 9 0;
#X connect 12 0 17 0;
#X connect 13 0 21 0;
#X connect 14 0 23 0;
#X connect 15 0 19 0;
#X connect 17 0 18 0;
#X connect 18 0 25 1;
#X connect 19 0 20 0;
#X connect 20 0 25 0;
#X connect 21 0 22 0;
#X connect 22 0 26 1;
#X connect 23 0 24 0;
#X connect 24 0 26 0;
#X connect 25 0 8 1;
#X connect 26 0 27 0;
#X connect 27 0 7 1;
